<?xml version="1.0" encoding="utf-8"?>
<!DOCTYPE svg PUBLIC "-//W3C//DTD SVG 1.0//EN" "http://www.w3.org/TR/2001/REC-SVG-20010904/DTD/svg10.dtd">
<svg version="1.0" xmlns="http://www.w3.org/2000/svg" width="483px" height="476px" viewBox="0 0 483 476" preserveAspectRatio="xMidYMid meet">
 <g fill="#ec722c">
  <path d="M218.25 444.65 c-29.25 -3.60 -53.60 -15.10 -74.40 -35.15 -23.10 -22.20 -36.40 -50.25 -39.35 -83 -0.75 -8.70 -0.65 -64.80 0.15 -65.15 4.35 -1.75 30 -12.30 33.25 -13.70 0.45 -0.20 0.60 7.15 0.60 35.90 0 38.05 0.20 43.15 2.25 53.25 4.70 23.35 19 44.65 39 57.95 12.10 8.10 24.45 12.80 39.30 14.95 6.30 0.95 29.25 1.10 35.95 0.30 15.25 -1.90 28 -6.65 41.10 -15.30 5.35 -3.50 8 -5.75 13.45 -11.15 14.50 -14.55 22.75 -30.55 26.60 -51.70 1.10 -5.95 1.10 -7 1.10 -45.20 0 -21.55 0.10 -39.15 0.30 -39.15 0.25 0 12.60 5 26.95 10.95 l7.25 3 0 32.15 c0 28.05 -0.15 32.95 -0.90 38.40 -3.50 24.70 -12.60 46.60 -27.10 65.05 -4.55 5.85 -16.95 17.85 -23.30 22.55 -13.25 9.95 -27 16.85 -41.70 21.05 -13.30 3.75 -19.25 4.35 -41.15 4.30 -9.80 -0.05 -18.50 -0.20 -19.35 -0.30z"/>
  <path d="M208.40 371.25 c-0.15 -0.15 -0.10 -1 0.15 -1.90 0.25 -0.90 3.05 -12.30 6.20 -25.35 3.15 -13.05 6 -24.60 6.30 -25.70 0.30 -1.05 0.35 -2.05 0.10 -2.25 -0.20 -0.20 -1.70 -1.35 -3.30 -2.50 -8.90 -6.75 -13.50 -19.45 -11.10 -30.80 2.10 -9.75 8.80 -17.90 18.35 -22.20 4.50 -2 8 -2.75 13.15 -2.75 14.55 0.05 26.80 9.70 30.50 23.95 0.95 3.80 0.95 11.20 0 15 -0.95 3.80 -3.15 8.30 -5.60 11.45 -1.75 2.30 -5.90 6.05 -7.95 7.20 -0.80 0.45 -0.70 1 1 7.90 4.55 18.10 11.30 46.30 11.30 47.15 0 0.90 -0.90 0.95 -29.40 1 -16.15 0.05 -29.50 -0.05 -29.70 -0.20z"/>
  <path d="M104 157.40 c0 -45.45 -0.15 -83.85 -0.30 -85.25 l-0.35 -2.65 25 0 25 0 8 10.15 c8.50 10.75 23.10 29.45 34.20 43.85 3.75 4.80 11.95 15.40 18.25 23.50 13.20 16.95 13.10 16.85 31.45 40.50 7.55 9.75 13.75 17.85 13.75 18 0 0.30 -21.05 26.75 -21.30 26.75 -0.20 0 -11.55 -14.30 -40.35 -51 -11 -14 -23.65 -30.10 -28.10 -35.75 -4.40 -5.65 -10.40 -13.30 -13.25 -17 -2.85 -3.70 -7.90 -10.10 -11.25 -14.25 l-6 -7.45 -0.15 59.80 -0.10 59.80 -3.15 1.25 c-1.70 0.65 -9.30 3.75 -16.85 6.80 -7.55 3.05 -13.90 5.55 -14.10 5.55 -0.25 0 -0.40 -37.20 -0.40 -82.60z"/>
  <path d="M354.60 233.20 c-8.90 -3.65 -16.40 -6.70 -16.65 -6.70 -0.25 0 -0.45 -24.30 -0.45 -59.75 0 -36.40 -0.20 -59.75 -0.45 -59.75 -0.25 0 -4.40 5 -9.15 11.15 -4.80 6.10 -16.80 21.40 -26.70 34.05 -9.85 12.60 -20.05 25.60 -22.60 28.85 -2.55 3.30 -4.75 5.95 -4.85 5.95 -0.15 0 -9.15 -11.30 -18.10 -22.80 l-3.50 -4.50 3.30 -4.50 c3.85 -5.25 6.95 -9.25 19.30 -24.90 26.25 -33.40 30.40 -38.70 31.65 -40.30 0.75 -0.95 4.70 -5.95 8.75 -11.10 l7.45 -9.40 24.70 0 24.70 0 0 85.25 c0 67.90 -0.15 85.25 -0.60 85.20 -0.35 0 -7.95 -3.05 -16.80 -6.75z"/>
 </g>
 <g fill="#6d6d6dff">
  <path d="M230.75 472 c-1.35 -0.25 -4.10 -0.45 -6.10 -0.45 -4.90 -0.05 -21.25 -1.85 -28.50 -3.10 -40.45 -6.95 -78.60 -24.85 -112.15 -52.60 -5.85 -4.85 -23.95 -23.05 -28.95 -29.10 -17.40 -21.10 -31.35 -45 -39.60 -67.90 -1.40 -3.90 -2.65 -7.45 -2.75 -7.85 -0.10 -0.40 -0.85 -3 -1.70 -5.75 -1.80 -5.75 -5.35 -19.30 -5.70 -21.80 -0.15 -0.95 -0.60 -3.30 -1 -5.25 -0.40 -1.95 -0.85 -4.65 -1 -6 -0.15 -1.35 -0.75 -6.40 -1.30 -11.20 -1.45 -12.10 -1.55 -39.85 -0.25 -48.75 0.25 -1.75 0.80 -6.90 0.95 -8.75 0.05 -0.70 0.25 -1.50 0.45 -1.80 0.20 -0.35 0.35 -1.15 0.30 -1.75 -0.05 -1.35 0.30 -3.90 0.85 -6.20 0.15 -0.80 0.35 -1.85 0.40 -2.25 0.05 -0.45 0.25 -1 0.40 -1.25 0.15 -0.30 0.30 -1.20 0.30 -2.10 0 -0.85 0.25 -2 0.55 -2.55 0.30 -0.55 0.40 -1.10 0.20 -1.25 -0.15 -0.20 0 -0.65 0.35 -1.10 0.35 -0.45 0.50 -0.90 0.35 -1.10 -0.20 -0.15 -0.10 -0.60 0.25 -1 0.30 -0.35 0.40 -0.80 0.25 -0.95 -0.25 -0.25 0.70 -4.25 1.50 -6.20 0.15 -0.40 0.40 -1.20 0.50 -1.75 0.10 -0.55 0.30 -1.35 0.50 -1.75 0.15 -0.40 0.35 -0.90 0.40 -1.10 0.10 -0.25 0.15 -0.45 0.20 -0.50 0.10 -0.10 0.20 -0.70 0.35 -1.40 0.30 -1.75 2.30 -7.70 2.65 -8 0.15 -0.15 0.35 -0.70 0.45 -1.25 0.55 -3.40 12.25 -29.75 13.20 -29.75 0.25 0 0.30 -0.20 0.15 -0.50 -0.15 -0.25 -0.05 -0.50 0.25 -0.50 0.30 0 0.40 -0.20 0.25 -0.50 -0.15 -0.25 -0.05 -0.50 0.25 -0.50 0.30 0 0.40 -0.20 0.25 -0.50 -0.15 -0.25 -0.05 -0.50 0.25 -0.50 0.30 0 0.45 -0.20 0.30 -0.45 -0.15 -0.25 0.05 -0.60 0.50 -0.75 0.40 -0.15 0.60 -0.50 0.45 -0.80 -0.15 -0.25 -0.05 -0.50 0.25 -0.50 0.30 0 0.40 -0.20 0.25 -0.50 -0.15 -0.25 -0.05 -0.50 0.25 -0.50 0.30 0 0.45 -0.20 0.30 -0.40 -0.15 -0.25 0.20 -0.95 0.75 -1.50 0.55 -0.60 0.80 -1.10 0.60 -1.10 -0.20 0 0 -0.25 0.50 -0.55 0.45 -0.30 0.75 -0.70 0.60 -1 -0.20 -0.25 -0.05 -0.45 0.25 -0.45 0.30 0 0.45 -0.20 0.30 -0.40 -0.15 -0.25 0.20 -0.90 0.70 -1.50 0.55 -0.60 1 -1.30 1 -1.60 0 -0.25 0.25 -0.50 0.55 -0.50 0.25 0 0.40 -0.20 0.25 -0.45 -0.15 -0.25 0.05 -0.60 0.50 -0.75 0.40 -0.15 0.60 -0.50 0.45 -0.80 -0.15 -0.25 -0.05 -0.50 0.20 -0.50 0.30 0 0.55 -0.35 0.55 -0.75 0 -0.40 0.25 -0.75 0.50 -0.75 0.30 0 0.50 -0.35 0.50 -0.75 0 -0.40 0.25 -0.75 0.50 -0.75 0.30 0 0.50 -0.30 0.50 -0.70 0 -0.40 0.35 -0.85 0.80 -1 0.40 -0.15 0.65 -0.50 0.50 -0.75 -0.15 -0.25 0.05 -0.60 0.50 -0.75 0.40 -0.15 0.65 -0.50 0.45 -0.75 -0.15 -0.30 0.20 -0.75 0.75 -1.05 0.55 -0.30 0.90 -0.75 0.75 -1.05 -0.20 -0.25 0.05 -0.60 0.45 -0.75 0.45 -0.15 0.80 -0.60 0.80 -0.95 0 -0.35 0.35 -0.80 0.80 -0.95 0.40 -0.15 0.60 -0.50 0.45 -0.80 -0.15 -0.30 0.05 -0.65 0.45 -0.80 0.45 -0.15 0.80 -0.55 0.80 -0.80 0 -0.65 2.90 -4.40 4.20 -5.50 0.60 -0.45 1.05 -1.05 1.05 -1.35 0 -0.25 0.40 -0.90 0.85 -1.40 1.80 -1.95 4.75 -5.25 6.65 -7.50 1.10 -1.25 4.60 -4.85 7.75 -8 3.15 -3.10 7 -6.90 8.55 -8.40 1.55 -1.50 3.05 -2.75 3.35 -2.75 0.30 0 1.05 -0.70 1.70 -1.50 0.60 -0.85 1.40 -1.50 1.75 -1.50 0.35 0 1.10 -0.70 1.75 -1.50 0.60 -0.85 1.40 -1.50 1.75 -1.50 0.35 0 0.90 -0.45 1.25 -1 0.35 -0.55 0.90 -1 1.25 -1 0.35 0 0.85 -0.45 1.15 -1 0.30 -0.55 0.85 -1 1.20 -1 0.40 0 0.80 -0.35 1 -0.75 0.15 -0.40 0.60 -0.75 1 -0.75 0.35 0 0.80 -0.35 1 -0.75 0.15 -0.40 0.60 -0.75 1 -0.75 0.35 0 0.80 -0.35 1 -0.75 0.15 -0.40 0.60 -0.75 1.05 -0.75 0.40 0 0.75 -0.20 0.75 -0.50 0 -0.25 0.35 -0.50 0.75 -0.50 0.45 0 0.90 -0.35 1.05 -0.75 0.20 -0.40 0.60 -0.75 1 -0.75 0.40 0 0.70 -0.20 0.70 -0.50 0 -0.25 0.35 -0.50 0.75 -0.50 0.40 0 0.75 -0.20 0.75 -0.50 0 -0.25 0.20 -0.50 0.45 -0.50 0.30 0 1.10 -0.55 1.85 -1.25 0.75 -0.70 1.90 -1.40 2.55 -1.55 0.65 -0.20 1.15 -0.50 1.15 -0.75 0 -0.25 0.35 -0.45 0.75 -0.45 0.40 0 0.75 -0.20 0.75 -0.50 0 -0.25 0.30 -0.50 0.65 -0.50 0.40 0 1.20 -0.45 1.85 -1 0.65 -0.55 1.45 -1 1.85 -1 0.35 0 0.65 -0.20 0.65 -0.50 0 -0.25 0.55 -0.60 1.25 -0.80 0.70 -0.15 1.25 -0.50 1.25 -0.70 0 -0.25 0.80 -0.70 1.75 -1 0.95 -0.30 1.75 -0.75 1.75 -1 0 -0.25 1 -0.80 2.25 -1.30 1.25 -0.45 2.25 -1 2.25 -1.15 0 -0.20 2.30 -1.45 5.15 -2.75 2.80 -1.35 6.10 -2.95 7.35 -3.55 12.10 -6.15 35.55 -13.55 53.50 -16.95 61.55 -11.65 125.40 1.05 176.25 34.95 35.30 23.50 61.30 52.35 80.90 89.75 13.85 26.35 22.70 58.35 24.90 89.75 0.55 7.80 0.30 29.15 -0.45 37.75 -0.10 1.50 -0.30 3.65 -0.35 4.75 -0.10 1.10 -0.30 2.40 -0.50 2.90 -0.20 0.45 -0.20 1.40 -0.05 2.05 0.15 0.65 0.10 1.30 -0.15 1.40 -0.30 0.10 -0.60 1.50 -0.70 3.15 -0.15 1.65 -0.40 3.40 -0.60 3.85 -0.20 0.50 -0.40 1.80 -0.40 2.90 -0.05 1.10 -0.30 2 -0.55 2 -0.25 0 -0.30 0.70 -0.10 1.50 0.15 0.95 0.05 1.50 -0.25 1.50 -0.30 0 -0.45 0.45 -0.30 1 0.15 0.55 0.10 1 -0.10 1 -0.35 0 -1.80 6 -1.80 7.50 0 0.40 -0.10 0.85 -0.25 1 -0.35 0.30 -3.75 12.45 -3.75 13.25 0 0.30 -0.15 0.60 -0.30 0.75 -0.55 0.45 -1.95 5.10 -1.65 5.55 0.15 0.25 0.05 0.45 -0.15 0.45 -0.55 0 -2.20 4.50 -1.85 5.05 0.15 0.25 0 0.45 -0.30 0.45 -0.30 0 -0.40 0.25 -0.25 0.50 0.15 0.30 0.10 0.50 -0.15 0.50 -0.25 0 -1 1.40 -1.60 3.15 -0.60 1.70 -2 5 -3.05 7.30 -1.10 2.30 -1.85 4.30 -1.75 4.45 0.15 0.10 -0.10 0.55 -0.50 0.95 -0.40 0.40 -0.60 0.95 -0.45 1.20 0.20 0.25 0.05 0.45 -0.30 0.45 -0.35 0 -0.50 0.15 -0.30 0.30 0.15 0.15 -0.20 0.75 -0.75 1.30 -0.55 0.55 -0.85 1.30 -0.70 1.70 0.15 0.40 0.05 0.70 -0.25 0.70 -0.30 0 -0.35 0.25 -0.20 0.50 0.15 0.30 0.05 0.50 -0.30 0.50 -0.35 0 -0.50 0.15 -0.30 0.30 0.15 0.20 -0.05 0.65 -0.45 1.05 -0.40 0.40 -0.60 0.95 -0.45 1.20 0.20 0.25 0.05 0.45 -0.25 0.45 -0.30 0 -0.40 0.25 -0.25 0.50 0.15 0.30 0.10 0.50 -0.20 0.50 -0.65 0 -2.10 2.75 -1.70 3.20 0.20 0.15 0.05 0.30 -0.30 0.30 -0.35 0 -0.50 0.20 -0.35 0.45 0.15 0.25 -0.05 0.60 -0.50 0.75 -0.40 0.15 -0.60 0.50 -0.45 0.80 0.15 0.25 0.05 0.50 -0.25 0.50 -0.30 0 -0.40 0.25 -0.25 0.50 0.15 0.30 0.05 0.50 -0.25 0.50 -0.30 0 -0.45 0.20 -0.30 0.45 0.15 0.25 -0.05 0.60 -0.50 0.75 -0.40 0.15 -0.60 0.50 -0.45 0.80 0.15 0.25 0.05 0.50 -0.30 0.50 -0.35 0 -0.50 0.15 -0.35 0.30 0.20 0.15 -0.10 0.70 -0.65 1.25 -0.55 0.55 -0.85 1.20 -0.70 1.40 0.10 0.25 -0.10 0.60 -0.55 0.75 -0.40 0.15 -0.60 0.50 -0.45 0.80 0.15 0.25 0.10 0.50 -0.15 0.50 -0.25 0 -2 2.30 -3.85 5.15 -19.25 29 -45.50 53.50 -78 72.80 -3.30 1.95 -6.20 3.70 -6.50 3.95 -0.70 0.55 -7.15 3.60 -15.25 7.20 -22.10 9.85 -41.85 15.50 -66 18.85 -11.75 1.65 -34.10 2.80 -38.75 2.05z m24.50 -7.95 c22.80 -1.65 44.40 -6.50 66.40 -14.85 7.05 -2.70 26.45 -11.80 27.70 -13.05 0.35 -0.30 1.95 -1.20 3.50 -1.95 1.60 -0.80 3 -1.60 3.05 -1.80 0.10 -0.20 0.50 -0.40 0.90 -0.40 0.40 0 0.70 -0.20 0.70 -0.50 0 -0.25 0.55 -0.60 1.25 -0.80 0.70 -0.15 1.25 -0.50 1.25 -0.75 0 -0.25 0.35 -0.45 0.75 -0.45 0.40 0 0.75 -0.20 0.75 -0.45 0 -0.25 0.55 -0.60 1.25 -0.75 0.70 -0.20 1.25 -0.55 1.25 -0.80 0 -0.30 0.35 -0.50 0.75 -0.50 0.40 0 0.75 -0.20 0.75 -0.50 0 -0.25 0.30 -0.50 0.70 -0.50 0.40 0 0.80 -0.15 0.90 -0.40 0.10 -0.20 4.10 -3.30 8.90 -6.90 13.55 -10.15 21.75 -17.55 32.20 -29.20 6.40 -7.10 12.35 -14.40 16.55 -20.25 1.55 -2.20 3.10 -4.15 3.45 -4.35 0.30 -0.20 0.40 -0.40 0.20 -0.40 -0.20 0 0.20 -0.55 0.90 -1.25 0.70 -0.70 1.10 -1.50 0.95 -1.75 -0.15 -0.30 0.05 -0.65 0.45 -0.80 0.45 -0.15 0.65 -0.50 0.50 -0.75 -0.15 -0.25 0 -0.45 0.25 -0.45 0.30 0 0.55 -0.35 0.55 -0.75 0 -0.40 0.25 -0.75 0.50 -0.75 0.30 0 0.50 -0.35 0.50 -0.75 0 -0.40 0.25 -0.75 0.55 -0.75 0.25 0 0.35 -0.20 0.20 -0.50 -0.15 -0.25 -0.05 -0.50 0.20 -0.50 0.30 0 0.55 -0.35 0.55 -0.75 0 -0.40 0.25 -0.75 0.55 -0.75 0.25 0 0.40 -0.20 0.25 -0.45 -0.15 -0.25 0.05 -0.60 0.50 -0.75 0.45 -0.20 0.70 -0.45 0.55 -0.60 -0.15 -0.20 0.15 -0.75 0.65 -1.35 0.55 -0.55 0.85 -1.20 0.70 -1.45 -0.15 -0.20 0 -0.40 0.30 -0.40 0.30 0 0.40 -0.20 0.25 -0.50 -0.15 -0.25 -0.05 -0.50 0.25 -0.50 0.30 0 0.45 -0.20 0.30 -0.40 -0.15 -0.25 0.15 -0.90 0.70 -1.45 0.50 -0.60 0.80 -1.20 0.65 -1.35 -0.20 -0.15 -0.05 -0.30 0.25 -0.30 0.35 0 0.60 -0.35 0.60 -0.75 0 -0.40 0.25 -0.75 0.60 -0.75 0.30 0 0.45 -0.15 0.25 -0.30 -0.35 -0.35 2.55 -6.35 3.20 -6.60 0.25 -0.10 0.35 -0.40 0.15 -0.65 -0.15 -0.25 0 -0.45 0.25 -0.45 0.30 0 0.50 -0.15 0.45 -0.35 -0.15 -0.85 0.75 -3.15 1.25 -3.15 0.30 0 0.35 -0.15 0.20 -0.30 -0.20 -0.20 0.30 -1.60 1.10 -3.15 1.55 -3.05 2.65 -5.50 2.85 -6.30 0.05 -0.25 0.40 -1.15 0.75 -2 0.35 -0.80 0.65 -1.60 0.70 -1.75 0.30 -1.35 1.45 -4.35 1.80 -4.80 0.25 -0.30 0.30 -0.70 0.10 -0.85 -0.15 -0.20 -0.05 -0.35 0.30 -0.35 0.35 0 0.55 -0.30 0.40 -0.70 -0.15 -0.35 0.05 -1.15 0.45 -1.75 0.40 -0.55 0.60 -1.05 0.45 -1.05 -0.15 0 -0.15 -0.30 0.10 -0.60 0.20 -0.35 0.40 -0.80 0.45 -1 0.05 -0.25 0.15 -0.50 0.20 -0.65 0.05 -0.15 0.20 -0.45 0.25 -0.75 0.05 -0.25 0.15 -0.55 0.25 -0.60 0.10 -0.15 0.30 -0.90 0.70 -2.85 0.15 -0.65 0.65 -2.45 1.10 -4 0.90 -2.95 1.05 -3.50 1.40 -4.90 0.15 -0.50 0.25 -0.90 0.35 -0.90 0.05 0 0.15 -0.45 0.25 -1 0.05 -0.55 0.30 -1.55 0.45 -2.25 0.30 -1.20 0.60 -2.70 1 -4.75 0.10 -0.55 0.20 -1 0.25 -1 0.05 0 0.20 -0.60 0.25 -1.30 0.10 -0.70 0.55 -3.15 1 -5.50 0.45 -2.30 0.90 -5.30 1.05 -6.70 0.10 -1.35 0.35 -3.05 0.50 -3.75 0.20 -0.70 0.40 -2.25 0.55 -3.50 0.10 -1.25 0.35 -3.15 0.45 -4.25 0.15 -1.10 0.35 -10.20 0.45 -20.25 0.15 -18.10 -0.05 -22.25 -1.80 -34.50 -0.35 -2.35 -0.65 -4.60 -0.70 -5 -0.05 -0.40 -0.25 -1.40 -0.45 -2.25 -0.15 -0.80 -0.40 -2.15 -0.50 -3 -0.10 -0.80 -0.35 -2.05 -0.50 -2.75 -0.15 -0.70 -0.40 -1.80 -0.50 -2.50 -1.25 -6.70 -6.60 -24.25 -10.35 -33.65 -11.85 -29.75 -30 -57.15 -52.50 -79.10 -20.45 -19.90 -45.75 -37.05 -70.20 -47.40 -22.05 -9.40 -40.95 -14.40 -66.50 -17.70 -8.85 -1.15 -40.70 -1.30 -49.50 -0.25 -28.15 3.40 -52.50 10.25 -75.85 21.45 -7.55 3.65 -18.05 9.50 -18.30 10.20 -0.10 0.25 -0.50 0.45 -0.85 0.45 -0.80 0 -16.45 10.35 -18.40 12.20 -0.75 0.70 -1.60 1.30 -1.85 1.30 -0.25 0 -0.70 0.45 -1 1 -0.30 0.55 -0.85 1 -1.30 1 -0.40 0 -0.85 0.35 -1 0.75 -0.20 0.40 -0.60 0.75 -1 0.75 -0.40 0 -0.95 0.45 -1.30 1 -0.35 0.55 -0.90 1 -1.25 1 -0.35 0 -0.85 0.45 -1.15 1 -0.30 0.55 -0.80 1 -1.10 1 -1.50 0 -18.45 16.30 -26.45 25.50 -4.50 5.15 -8.55 10.30 -8.45 10.75 0 0.15 -0.50 0.75 -1.25 1.30 -0.70 0.60 -1.15 1.20 -1 1.45 0.15 0.20 -0.10 0.55 -0.55 0.70 -0.45 0.20 -0.70 0.45 -0.50 0.65 0.15 0.15 -0.15 0.65 -0.70 1 -0.55 0.40 -0.90 0.90 -0.75 1.15 0.15 0.20 -0.10 0.55 -0.55 0.70 -0.40 0.15 -0.60 0.50 -0.45 0.80 0.15 0.25 0.10 0.50 -0.20 0.50 -0.25 0 -1.20 1 -2.05 2.25 -0.85 1.25 -1.40 2.25 -1.20 2.25 0.20 0 -0.05 0.35 -0.60 0.75 -0.50 0.40 -0.75 0.75 -0.50 0.75 0.30 0 0.05 0.35 -0.50 0.75 -0.50 0.40 -0.75 0.75 -0.50 0.75 0.30 0 0.10 0.30 -0.35 0.60 -0.45 0.35 -0.85 1 -0.95 1.40 -0.10 0.40 -0.40 0.95 -0.75 1.25 -0.35 0.25 -0.65 0.85 -0.75 1.25 -0.10 0.40 -0.40 0.95 -0.75 1.25 -0.35 0.25 -0.65 0.80 -0.75 1.20 -0.10 0.40 -0.55 1.15 -1.05 1.65 -0.50 0.50 -0.75 1.15 -0.60 1.40 0.20 0.30 0.05 0.50 -0.25 0.50 -0.30 0 -0.40 0.25 -0.25 0.50 0.15 0.30 0.05 0.50 -0.25 0.50 -0.30 0 -0.45 0.20 -0.30 0.45 0.15 0.25 -0.05 0.60 -0.50 0.75 -0.45 0.20 -0.70 0.45 -0.55 0.60 0.15 0.20 -0.05 0.65 -0.45 1.05 -0.40 0.40 -0.60 0.95 -0.45 1.20 0.20 0.25 0.05 0.45 -0.25 0.45 -0.30 0 -0.40 0.25 -0.25 0.50 0.15 0.30 0.05 0.50 -0.30 0.50 -0.35 0 -0.50 0.15 -0.30 0.30 0.15 0.20 -0.05 0.65 -0.45 1.05 -0.40 0.40 -0.60 0.95 -0.45 1.20 0.20 0.25 0.05 0.45 -0.25 0.45 -0.30 0 -0.40 0.25 -0.25 0.50 0.15 0.30 0.05 0.50 -0.25 0.50 -0.30 0 -0.40 0.25 -0.25 0.50 0.15 0.30 0.10 0.50 -0.15 0.50 -0.90 0 -8.85 18.15 -8.35 19.05 0.15 0.20 0.10 0.45 -0.15 0.55 -0.60 0.25 -2.65 5.95 -2.30 6.45 0.15 0.25 0 0.45 -0.25 0.45 -0.30 0 -0.50 0.15 -0.45 0.40 0.05 0.20 -0.15 0.85 -0.50 1.50 -0.35 0.60 -0.70 1.80 -0.75 2.60 -0.05 0.85 -0.25 1.50 -0.45 1.50 -0.25 0 -1.55 4.25 -1.70 5.75 0 0.30 -0.30 1.15 -0.65 1.95 -0.30 0.80 -0.50 1.75 -0.35 2.15 0.15 0.35 0.05 0.65 -0.25 0.65 -0.30 0 -0.40 0.45 -0.20 1 0.20 0.60 0.10 1 -0.25 1 -0.35 0 -0.45 0.40 -0.25 1 0.20 0.60 0.10 1 -0.25 1 -0.35 0 -0.45 0.40 -0.25 1 0.20 0.60 0.10 1 -0.25 1 -0.35 0 -0.45 0.40 -0.25 1 0.20 0.60 0.10 1 -0.25 1 -0.30 0 -0.40 0.50 -0.20 1.25 0.20 0.80 0.10 1.25 -0.30 1.25 -0.40 0 -0.50 0.45 -0.30 1.25 0.20 0.80 0.10 1.25 -0.25 1.25 -0.35 0 -0.45 0.45 -0.25 1.25 0.20 0.70 0.10 1.25 -0.10 1.25 -0.60 0 -1.70 8.10 -1.30 9.20 0.15 0.45 0.05 0.80 -0.30 0.80 -0.35 0 -0.50 0.65 -0.45 1.65 0.10 0.90 0 1.90 -0.20 2.20 -0.20 0.35 -0.40 1.35 -0.40 2.25 0.05 0.90 -0.10 3.80 -0.20 6.40 -0.15 2.60 -0.30 11.85 -0.30 20.50 -0.05 16.50 0.60 25.10 3 38.40 1.95 10.85 6.75 29.10 7.65 29.10 0.25 0 0.35 0.20 0.15 0.45 -0.15 0.25 -0.05 0.60 0.25 0.80 0.30 0.20 0.40 0.50 0.25 0.75 -0.65 1.10 8.30 23 13.35 32.50 5.40 10.20 13.85 24 14.95 24.40 0.25 0.10 0.45 0.45 0.45 0.70 0 1.35 12.50 17.15 20.25 25.60 21.40 23.40 53.25 45.30 83 57.05 11.30 4.45 29.20 9.95 37.55 11.45 0.80 0.15 2 0.40 2.70 0.55 1.55 0.35 2.40 0.45 12.50 2 4.55 0.65 12.65 1.45 18 1.75 5.35 0.30 10.20 0.60 10.75 0.70 1.90 0.25 14.55 -0.10 22 -0.65z"/>
 </g>
</svg>